<?xml version="1.0" standalone="no"?><!DOCTYPE svg PUBLIC "-//W3C//DTD SVG 1.1//EN" "http://www.w3.org/Graphics/SVG/1.1/DTD/svg11.dtd"><svg t="1554963428558" class="icon" style="" viewBox="0 0 1024 1024" version="1.1" xmlns="http://www.w3.org/2000/svg" p-id="11504" xmlns:xlink="http://www.w3.org/1999/xlink" width="256" height="256"><defs><style type="text/css"></style></defs><path d="M969.728 409.088c-7.168-26.624-31.744-45.568-73.216-56.32-4.608-1.536-9.728-2.56-14.848-3.584-10.24-2.048-19.968 4.608-22.016 14.848-2.048 10.24 4.608 19.968 14.848 22.016 4.608 1.024 8.704 2.048 12.8 3.072 27.136 7.168 43.52 17.92 47.104 29.696v0.512c5.632 20.48-22.016 54.272-79.36 91.648-1.536-22.016-5.12-45.056-11.264-67.072-27.136-100.864-96.768-184.32-190.464-229.376-76.8-36.864-164.352-45.056-246.784-23.04-153.088 40.96-256 175.616-264.192 326.144-32.768 19.456-59.392 39.424-79.36 58.88-11.264 11.264-20.48 22.528-27.136 34.304-6.656 11.776-10.752 24.064-10.752 36.864 0 5.12 0.512 10.24 2.048 14.848v0.512c12.288 46.08 79.872 66.048 172.032 67.584 25.6 39.424 58.88 73.216 97.792 100.352 59.904 40.96 130.56 62.464 201.728 62.464 30.72 0 61.952-4.096 92.16-12.288 153.088-40.96 256.512-176.128 264.192-326.656C933.376 506.88 982.016 455.68 970.24 409.6l-0.512-0.512zM62.464 652.288c-0.512-2.048-1.024-3.584-1.024-5.12 0-4.608 1.536-10.752 5.632-18.432 7.68-13.312 23.552-30.208 46.08-48.128 8.192-6.656 17.92-13.312 28.16-19.968 1.536 22.016 5.12 45.056 11.264 67.584 5.632 22.016 13.824 43.52 24.064 63.488-67.584-3.584-108.544-18.432-114.176-39.424z m518.144 191.488C490.496 868.352 394.24 851.968 317.44 798.72c-28.16-19.456-53.248-43.008-73.728-70.144 88.576-4.096 193.536-21.504 292.864-48.128 99.84-26.624 199.168-63.488 278.016-104.96-15.872 124.928-105.472 233.984-233.984 268.288z m-53.76-199.168c-123.392 33.28-228.352 47.104-307.2 48.128-13.312-23.552-23.552-48.128-30.208-74.24-45.568-169.984 55.808-345.6 225.792-391.168 27.136-7.168 54.784-10.752 82.432-10.752 47.104 0 94.72 10.752 138.24 31.232 84.48 40.448 146.432 115.2 170.496 205.312 7.168 26.624 10.752 53.248 10.752 79.36-68.608 38.4-166.912 78.848-290.304 112.128z" p-id="11505" fill="#808695"></path><path d="M438.784 301.056C359.936 321.024 296.96 378.88 269.824 455.168c-3.584 9.728 1.536 20.48 11.264 24.064 2.048 1.024 4.096 1.024 6.144 1.024 7.68 0 14.848-4.608 17.92-12.288C328.192 402.944 381.44 354.304 447.488 337.92c10.24-2.56 16.384-12.8 13.824-23.04s-12.8-16.384-22.528-13.824zM293.888 542.72c-0.512-10.24-9.216-18.432-19.456-17.92-10.24 0.512-18.432 9.216-17.92 19.456 0.512 8.704 1.024 17.408 2.56 26.112 1.536 9.216 9.216 16.384 18.432 16.384 1.024 0 2.048 0 2.56-0.512 10.24-1.536 17.408-11.264 15.872-21.504-1.024-7.168-2.048-14.848-2.048-22.016zM855.04 143.36c-39.936 0-72.704 32.768-72.704 72.704s32.768 72.704 72.704 72.704c40.448 0 72.704-32.768 72.704-72.704S894.976 143.36 855.04 143.36z m0 112.64c-22.016 0-39.936-17.92-39.936-39.936s17.92-39.936 39.936-39.936 39.936 17.92 39.936 39.936-17.92 39.936-39.936 39.936zM312.832 930.304l-16.896-5.632-5.632-16.896c-1.536-4.096-4.608-6.656-8.704-6.656s-7.68 2.56-8.704 6.656l-5.632 16.896-16.896 5.632c-4.096 1.536-6.656 4.608-6.656 8.704 0 4.096 2.56 7.68 6.656 8.704l16.896 5.632 5.632 16.896c1.536 4.096 4.608 6.656 8.704 6.656s7.68-2.56 8.704-6.656l5.632-16.896 16.896-5.632c4.096-1.536 6.144-4.608 6.144-8.704 0.512-3.584-2.048-7.168-6.144-8.704zM476.16 46.592l16.896 5.632 5.632 16.896c1.536 4.096 4.608 6.656 8.704 6.656 4.096 0 7.68-2.56 8.704-6.656l5.632-16.896 16.896-5.632c4.096-1.536 6.656-4.608 6.656-8.704s-2.56-7.68-6.656-8.704l-16.896-5.632-5.632-16.896c-1.536-4.096-4.608-6.656-8.704-6.656s-7.68 2.56-8.704 6.656l-5.632 16.896-16.896 5.12c-4.096 1.536-6.656 4.608-6.656 8.704s2.56 7.68 6.656 9.216zM37.888 425.984c1.536 4.096 4.608 6.656 8.704 6.656s7.68-2.56 8.704-6.656l7.68-23.552 23.552-7.68c4.096-1.536 6.656-4.608 6.656-8.704s-2.56-7.68-6.656-8.704L63.488 368.64l-7.68-23.552c-1.536-4.096-4.608-6.656-8.704-6.656s-7.68 2.56-8.704 6.656L30.208 368.64l-23.552 7.68c-4.096 1.536-6.656 4.608-6.656 8.704s2.56 7.68 6.656 8.704l23.552 7.68c0 0.512 7.68 24.576 7.68 24.576zM216.064 122.368c0 10.24 8.704 18.944 18.944 18.944s18.944-8.704 18.944-18.944-8.704-18.944-18.944-18.944c-10.752 0-18.944 8.192-18.944 18.944zM478.72 1005.056c0 10.24 8.704 18.944 18.944 18.944s18.944-8.704 18.944-18.944-8.704-18.944-18.944-18.944-18.944 8.704-18.944 18.944zM986.112 572.928c0 10.24 8.704 18.944 18.944 18.944s18.944-8.704 18.944-18.944-8.704-18.944-18.944-18.944-18.944 8.704-18.944 18.944zM648.192 122.368c0 10.24 8.704 18.944 18.944 18.944s18.944-8.704 18.944-18.944-8.704-18.944-18.944-18.944c-10.752 0-18.944 8.192-18.944 18.944zM951.808 770.56l-23.552-7.68-7.68-23.552c-1.536-4.096-4.608-6.656-8.704-6.656s-7.68 2.56-8.704 6.656l-7.68 23.552-23.552 7.68c-4.096 1.536-6.656 4.608-6.656 8.704s2.56 7.68 6.656 8.704l23.552 7.68 7.68 23.552c1.536 4.096 4.608 6.656 8.704 6.656s7.68-2.56 8.704-6.656l7.68-23.552 23.552-7.68c4.096-1.536 6.656-4.608 6.656-8.704s-3.072-7.168-6.656-8.704z" p-id="11506" fill="#808695"></path></svg>