<?xml version="1.0" standalone="no"?><!DOCTYPE svg PUBLIC "-//W3C//DTD SVG 1.1//EN" "http://www.w3.org/Graphics/SVG/1.1/DTD/svg11.dtd"><svg t="1558424206602" class="icon" style="" viewBox="0 0 1024 1024" version="1.1" xmlns="http://www.w3.org/2000/svg" p-id="2341" xmlns:xlink="http://www.w3.org/1999/xlink" width="128" height="128"><defs><style type="text/css"></style></defs><path d="M814.688 0.128c-9.376 0.096-18.72 0.16-28.064 0.032-4.992-0.064-10.016 0-15.52 0l0 53.792 62.304 0c45.408 0.032 74.56 29.024 74.56 74.24l0 761.888c0 44.704-29.12 73.792-74.016 73.792l-679.808 0c-44 0-73.664-29.504-73.664-73.44-0.032-254.24-0.032-508.512 0.096-762.784 0-7.136 0.768-14.464 2.496-21.376 7.552-30.592 34.688-51.84 66.432-52.192 22.752-0.288 45.504-0.096 68.768-0.096l0-53.792-91.264 0c-58.304 0.032-100 41.6-100 99.904-0.032 272.608-0.032 545.184 0 817.76 0 58.144 41.344 99.488 99.2 99.488l736.608 0c57.28 0 98.976-41.632 98.976-98.784l0-457.12c0-121.44 0.032-242.848-0.032-364.256-0.032-49.28-35.68-91.072-84.16-95.488-14.816-1.312-29.696-1.632-44.576-1.632-6.112 0-12.224 0.064-18.304 0.128zM357.344 0.16c-11.168 0.128-15.872 4.544-16.448 15.712-0.384 6.88-0.288 13.824-0.096 20.672 0.384 13.408 4.608 17.344 18.304 17.344 48.608 0.032 97.28 0 145.92 0 49.504 0 99.04 0.032 148.608 0 11.776-0.032 16.16-4.512 16.256-16.352 0.064-5.984 0-12.032 0-18.016 0-15.584-3.84-19.392-19.776-19.392l-254.912 0c-7.744 0-15.52-0.064-23.264-0.064-4.864 0-9.696 0.032-14.592 0.096zM188.064 321.344c-9.088 0.256-14.176 2.624-14.816 7.328-0.48 3.584-0.16 7.2-0.16 10.816 0.032 8.96 3.936 11.008 21.216 11.008l597.888 0c2.56 0 5.152 0.064 7.68 0 10.24-0.16 15.264-2.656 15.648-7.84 0.224-3.104 0.064-6.208 0.064-9.312 0-10.656-2.624-12.032-22.944-12.032l-596.896 0c-1.472 0-2.944-0.032-4.384-0.032-1.12 0-2.176 0.032-3.296 0.064zM183.968 496.608c-6.624 0.256-10.304 2.624-10.784 7.328-0.352 3.584-0.16 7.2-0.16 10.816 0.032 8.96 2.848 11.04 15.456 11.04l434.848 0c1.856 0 3.68 0.032 5.536-0.032 7.488-0.192 11.136-2.624 11.392-7.84 0.16-3.104 0.064-6.208 0.064-9.344 0-10.624-1.92-11.968-16.672-11.968l-434.144 0c-1.056 0-2.112-0.032-3.168-0.032-0.8 0-1.568 0.032-2.368 0.032zM179.84 671.904c-4.128 0.256-6.432 2.624-6.72 7.296-0.192 3.552-0.096 7.2-0.096 10.816 0.032 8.992 1.824 11.008 9.664 11.04l271.744 0c1.184 0 2.336 0.032 3.52-0.032 4.64-0.16 6.912-2.656 7.136-7.84 0.064-3.104 0-6.208 0-9.344 0-10.592-1.184-11.968-10.4-11.968l-271.328 0c-0.64 0-1.344-0.032-1.984-0.032-0.512 0-1.024 0.032-1.504 0.064z" p-id="2342" fill="#808695"></path></svg>