<?xml version="1.0" standalone="no"?><!DOCTYPE svg PUBLIC "-//W3C//DTD SVG 1.1//EN" "http://www.w3.org/Graphics/SVG/1.1/DTD/svg11.dtd"><svg t="1554963478465" class="icon" style="" viewBox="0 0 1221 1024" version="1.1" xmlns="http://www.w3.org/2000/svg" p-id="13715" xmlns:xlink="http://www.w3.org/1999/xlink" width="305.25" height="256"><defs><style type="text/css"></style></defs><path d="M821.556029 209.424798h-32.286323v-4.799319c0-23.996591-19.197273-43.193865-43.193865-43.193864h-68.49936c-1.308905-43.630166-36.64934-78.534299-80.715808-78.534299s-79.406902 34.904133-80.715807 78.534299h-68.499361c-23.996591 0-43.193865 19.197273-43.193865 43.193864V209.424798h-32.286323c-51.919898 0-94.241159 42.321261-94.241158 94.241159v570.682573c0 51.919898 42.321261 94.241159 94.241158 94.241159h448.518109c51.919898 0 94.241159-42.321261 94.241159-94.241159V303.665957c0.872603-51.919898-41.448658-94.241159-93.368556-94.241159z m-224.259054-91.623349c25.305496 0 45.811674 20.506178 45.811674 45.811674S622.602471 209.424798 597.296975 209.424798s-45.811674-20.506178-45.811675-45.811675S571.991478 117.801449 597.296975 117.801449z m274.870047 756.547081c0 27.923306-22.687686 50.610993-50.610993 50.610993H373.474222c-27.923306 0-50.610993-22.687686-50.610992-50.610993V303.665957C322.86323 275.74265 345.550916 253.054964 373.474222 253.054964H405.760545v26.178099h383.945463v-26.178099h32.286323c27.923306 0 50.610993 22.687686 50.610992 50.610993v570.682573z" fill="#808695" p-id="13716"></path><path d="M760.910098 366.493396h-327.226246c-4.799318 0-8.726033 3.926715-8.726034 8.726033v30.541116c0 4.799318 3.926715 8.726033 8.726034 8.726034h327.226246c4.799318 0 8.726033-3.926715 8.726033-8.726034v-30.541116c0-4.799318-3.926715-8.726033-8.726033-8.726033zM760.910098 496.074989h-327.226246c-4.799318 0-8.726033 3.926715-8.726034 8.726034v30.541116c0 4.799318 3.926715 8.726033 8.726034 8.726033h327.226246c4.799318 0 8.726033-3.926715 8.726033-8.726033v-30.541116c0-4.799318-3.926715-8.726033-8.726033-8.726034zM760.910098 625.220281h-327.226246c-4.799318 0-8.726033 3.926715-8.726034 8.726033v30.541117c0 4.799318 3.926715 8.726033 8.726034 8.726033h327.226246c4.799318 0 8.726033-3.926715 8.726033-8.726033v-30.541117c0-4.799318-3.926715-8.726033-8.726033-8.726033zM760.910098 754.801875h-327.226246c-4.799318 0-8.726033 3.926715-8.726034 8.726033v30.541116c0 4.799318 3.926715 8.726033 8.726034 8.726034h327.226246c4.799318 0 8.726033-3.926715 8.726033-8.726034v-30.541116c0-4.799318-3.926715-8.726033-8.726033-8.726033z" fill="#808695" p-id="13717"></path><path d="M189.791223 115.61994m-28.359608 0a28.359608 28.359608 0 1 0 56.719216 0 28.359608 28.359608 0 1 0-56.719216 0Z" fill="#808695" p-id="13718"></path><path d="M1145.291862 785.342991c-25.305496 0-45.811674 20.506178-45.811675 45.811675s20.506178 45.811674 45.811675 45.811674 45.811674-20.506178 45.811674-45.811674-20.506178-45.811674-45.811674-45.811675z m0 69.808266c-13.525352 0-23.996591-10.907542-23.996591-23.996591s10.907542-23.996591 23.996591-23.996592 23.996591 10.907542 23.996591 23.996592-10.907542 23.996591-23.996591 23.996591zM157.941202 592.061355l-45.811675-15.270558-15.70686-45.375373c-0.436302-0.872603-1.745207-0.872603-1.745206 0l-15.270559 45.811674-45.375372 15.70686c-0.872603 0.436302-0.872603 1.745207 0 1.745207l45.811674 15.270558 15.70686 45.375373c0.436302 0.872603 1.745207 0.872603 1.745207 0l15.270558-45.811675 45.375373-15.706859c1.308905 0 1.308905-1.308905 0-1.745207zM1107.333617 120.85556L1059.776736 104.712399l-16.579463-47.556881c-0.436302-0.872603-1.745207-0.872603-2.181508 0l-15.70686 47.993182-47.556881 16.579464c-0.872603 0.436302-0.872603 1.745207 0 2.181508L1025.308905 139.616532l16.579463 47.556881c0.436302 0.872603 1.745207 0.872603 2.181508 0l15.70686-47.556881 47.556881-16.579463c1.308905-0.436302 1.308905-2.181508 0-2.181509z" fill="#808695" p-id="13719"></path></svg>